REM DIRINDEX 1\2,1\4,1\5,1\6,1\7,1\3\8,1\3\9,1\3\10
REM DIRNAME cjc113,folder01,folder02,folder03,folder04,folder05,folder06,folder07,folder08,folder09
TITLE ""
FILE "DB4500_5th_4B_34.mp3" MP3
  TRACK 01 AUDIO
    TITLE "0:"
    INDEX 01 00:00:00
  TRACK 02 AUDIO
    TITLE "8:cjc113_3032"
    INDEX 01 00:00:03
  TRACK 03 AUDIO
    TITLE "0:"
    INDEX 01 00:01:07
  TRACK 04 AUDIO
    TITLE "9:cjc113_3033"
    INDEX 01 00:01:30
  TRACK 05 AUDIO
    TITLE "0:"
    INDEX 01 00:02:53
  TRACK 06 AUDIO
    TITLE "10:cjc113_3034"
    INDEX 01 00:03:02
  TRACK 07 AUDIO
    TITLE "0:"
    INDEX 01 00:06:18
  TRACK 08 AUDIO
    TITLE "8:cjc113_3035"
    INDEX 01 00:06:69
  TRACK 09 AUDIO
    TITLE "0:"
    INDEX 01 00:08:01
  TRACK 10 AUDIO
    TITLE "9:cjc113_3036"
    INDEX 01 00:08:24
  TRACK 11 AUDIO
    TITLE "0:"
    INDEX 01 00:09:53
  TRACK 12 AUDIO
    TITLE "10:cjc113_3037"
    INDEX 01 00:10:00
  TRACK 13 AUDIO
    TITLE "0:"
    INDEX 01 00:14:07
  TRACK 14 AUDIO
    TITLE "8:cjc113_3038"
    INDEX 01 00:14:54
  TRACK 15 AUDIO
    TITLE "0:"
    INDEX 01 00:15:58
  TRACK 16 AUDIO
    TITLE "9:cjc113_3039"
    INDEX 01 00:16:06
  TRACK 17 AUDIO
    TITLE "0:"
    INDEX 01 00:17:29
  TRACK 18 AUDIO
    TITLE "10:cjc113_3040"
    INDEX 01 00:17:51
  TRACK 19 AUDIO
    TITLE "0:"
    INDEX 01 00:20:32
  TRACK 20 AUDIO
    TITLE "8:cjc113_3041"
    INDEX 01 00:21:06
  TRACK 21 AUDIO
    TITLE "0:"
    INDEX 01 00:22:19
  TRACK 22 AUDIO
    TITLE "9:cjc113_3042"
    INDEX 01 00:22:44
  TRACK 23 AUDIO
    TITLE "0:"
    INDEX 01 00:23:73
  TRACK 24 AUDIO
    TITLE "10:cjc113_3043"
    INDEX 01 00:24:24
  TRACK 25 AUDIO
    TITLE "0:"
    INDEX 01 00:27:16
  TRACK 26 AUDIO
    TITLE "8:cjc113_3044"
    INDEX 01 00:27:65
  TRACK 27 AUDIO
    TITLE "0:"
    INDEX 01 00:29:05
  TRACK 28 AUDIO
    TITLE "9:cjc113_3045"
    INDEX 01 00:29:27
  TRACK 29 AUDIO
    TITLE "0:"
    INDEX 01 00:30:63
  TRACK 30 AUDIO
    TITLE "10:cjc113_3046"
    INDEX 01 00:31:12
  TRACK 31 AUDIO
    TITLE "0:"
    INDEX 01 00:35:23
  TRACK 32 AUDIO
    TITLE "8:cjc113_3047"
    INDEX 01 00:35:72
  TRACK 33 AUDIO
    TITLE "0:"
    INDEX 01 00:37:10
  TRACK 34 AUDIO
    TITLE "9:cjc113_3048"
    INDEX 01 00:37:32
  TRACK 35 AUDIO
    TITLE "0:"
    INDEX 01 00:38:59
  TRACK 36 AUDIO
    TITLE "10:cjc113_3049"
    INDEX 01 00:39:07
  TRACK 37 AUDIO
    TITLE "0:"
    INDEX 01 00:41:61
  TRACK 38 AUDIO
    TITLE "8:cjc113_3050"
    INDEX 01 00:42:29
  TRACK 39 AUDIO
    TITLE "0:"
    INDEX 01 00:43:31
  TRACK 40 AUDIO
    TITLE "9:cjc113_3051"
    INDEX 01 00:43:56
  TRACK 41 AUDIO
    TITLE "0:"
    INDEX 01 00:44:50
  TRACK 42 AUDIO
    TITLE "10:cjc113_3052"
    INDEX 01 00:44:69
  TRACK 43 AUDIO
    TITLE "0:"
    INDEX 01 00:49:00
  TRACK 44 AUDIO
    TITLE "8:cjc113_3053"
    INDEX 01 00:49:43
  TRACK 45 AUDIO
    TITLE "0:"
    INDEX 01 00:50:48
  TRACK 46 AUDIO
    TITLE "9:cjc113_3054"
    INDEX 01 00:50:72
  TRACK 47 AUDIO
    TITLE "0:"
    INDEX 01 00:52:14
  TRACK 48 AUDIO
    TITLE "10:cjc113_3055"
    INDEX 01 00:52:39
  TRACK 49 AUDIO
    TITLE "0:"
    INDEX 01 00:57:35
  TRACK 50 AUDIO
    TITLE "8:cjc113_3056"
    INDEX 01 00:58:07
  TRACK 51 AUDIO
    TITLE "0:"
    INDEX 01 00:59:16
  TRACK 52 AUDIO
    TITLE "9:cjc113_3057"
    INDEX 01 00:59:39
  TRACK 53 AUDIO
    TITLE "0:"
    INDEX 01 01:01:13
  TRACK 54 AUDIO
    TITLE "10:cjc113_3058"
    INDEX 01 01:01:38
  TRACK 55 AUDIO
    TITLE "0:"
    INDEX 01 01:04:29
  TRACK 56 AUDIO
    TITLE "8:cjc113_3059"
    INDEX 01 01:05:03
  TRACK 57 AUDIO
    TITLE "0:"
    INDEX 01 01:06:12
  TRACK 58 AUDIO
    TITLE "9:cjc113_3060"
    INDEX 01 01:06:34
  TRACK 59 AUDIO
    TITLE "0:"
    INDEX 01 01:07:66
  TRACK 60 AUDIO
    TITLE "10:cjc113_3061"
    INDEX 01 01:08:11
  TRACK 61 AUDIO
    TITLE "0:"
    INDEX 01 01:10:53
  TRACK 62 AUDIO
    TITLE "8:cjc113_3062"
    INDEX 01 01:11:23
  TRACK 63 AUDIO
    TITLE "0:"
    INDEX 01 01:12:36
  TRACK 64 AUDIO
    TITLE "9:cjc113_3063"
    INDEX 01 01:12:58
  TRACK 65 AUDIO
    TITLE "0:"
    INDEX 01 01:13:65
  TRACK 66 AUDIO
    TITLE "10:cjc113_3064"
    INDEX 01 01:14:12
  TRACK 67 AUDIO
    TITLE "0:"
    INDEX 01 01:16:63
  TRACK 68 AUDIO
    TITLE "8:cjc113_3065"
    INDEX 01 01:17:37
  TRACK 69 AUDIO
    TITLE "0:"
    INDEX 01 01:18:47
  TRACK 70 AUDIO
    TITLE "9:cjc113_3066"
    INDEX 01 01:18:72
  TRACK 71 AUDIO
    TITLE "0:"
    INDEX 01 01:20:22
  TRACK 72 AUDIO
    TITLE "10:cjc113_3067"
    INDEX 01 01:20:42
  TRACK 73 AUDIO
    TITLE "0:"
    INDEX 01 01:23:11
  TRACK 74 AUDIO
    TITLE "8:cjc113_3068"
    INDEX 01 01:23:62
  TRACK 75 AUDIO
    TITLE "0:"
    INDEX 01 01:24:69
  TRACK 76 AUDIO
    TITLE "9:cjc113_3069"
    INDEX 01 01:25:17
  TRACK 77 AUDIO
    TITLE "0:"
    INDEX 01 01:26:70
  TRACK 78 AUDIO
    TITLE "10:cjc113_3070"
    INDEX 01 01:27:18
  TRACK 79 AUDIO
    TITLE "0:"
    INDEX 01 01:30:09
  TRACK 80 AUDIO
    TITLE "8:cjc113_3071"
    INDEX 01 01:30:56
  TRACK 81 AUDIO
    TITLE "0:"
    INDEX 01 01:31:73
  TRACK 82 AUDIO
    TITLE "9:cjc113_3072"
    INDEX 01 01:32:23
  TRACK 83 AUDIO
    TITLE "0:"
    INDEX 01 01:33:66
  TRACK 84 AUDIO
    TITLE "10:cjc113_3073"
    INDEX 01 01:34:06
  TRACK 85 AUDIO
    TITLE "0:"
    INDEX 01 01:38:12
  TRACK 86 AUDIO
    TITLE "8:cjc113_3074"
    INDEX 01 01:38:59
  TRACK 87 AUDIO
    TITLE "0:"
    INDEX 01 01:39:64
  TRACK 88 AUDIO
    TITLE "9:cjc113_3075"
    INDEX 01 01:40:11
  TRACK 89 AUDIO
    TITLE "0:"
    INDEX 01 01:41:28
  TRACK 90 AUDIO
    TITLE "10:cjc113_3076"
    INDEX 01 01:41:50
  TRACK 91 AUDIO
    TITLE "0:"
    INDEX 01 01:45:02
